<mxfile host="app.diagrams.net" modified="2023-05-23T22:11:51.547Z" agent="Mozilla/5.0 (Windows NT 10.0; Win64; x64) AppleWebKit/537.36 (KHTML, like Gecko) Chrome/113.0.0.0 Safari/537.36" etag="wD1FCGgLJA_s6-4QFVr8" version="21.3.3" type="github">
  <diagram name="PÃ¡gina-1" id="o_oJNjvjLYseJ4-ihuIS">
    <mxGraphModel dx="1434" dy="796" grid="1" gridSize="10" guides="1" tooltips="1" connect="1" arrows="1" fold="1" page="1" pageScale="1" pageWidth="827" pageHeight="1169" math="0" shadow="0">
      <root>
        <mxCell id="0" />
        <mxCell id="1" parent="0" />
        <mxCell id="YRfRc5hVLMAo7PMf_Jee-9" value="" style="edgeStyle=orthogonalEdgeStyle;rounded=0;orthogonalLoop=1;jettySize=auto;html=1;" edge="1" parent="1" source="YRfRc5hVLMAo7PMf_Jee-1" target="YRfRc5hVLMAo7PMf_Jee-4">
          <mxGeometry relative="1" as="geometry" />
        </mxCell>
        <mxCell id="YRfRc5hVLMAo7PMf_Jee-1" value="&lt;b&gt;&lt;font style=&quot;font-size: 19px;&quot;&gt;Inicio&lt;/font&gt;&lt;/b&gt;" style="ellipse;whiteSpace=wrap;html=1;" vertex="1" parent="1">
          <mxGeometry x="240" y="10" width="120" height="80" as="geometry" />
        </mxCell>
        <mxCell id="YRfRc5hVLMAo7PMf_Jee-3" value="" style="endArrow=classic;html=1;rounded=0;" edge="1" parent="1">
          <mxGeometry width="50" height="50" relative="1" as="geometry">
            <mxPoint x="297" y="220" as="sourcePoint" />
            <mxPoint x="297.5" y="270" as="targetPoint" />
          </mxGeometry>
        </mxCell>
        <mxCell id="YRfRc5hVLMAo7PMf_Jee-4" value="Entrada num1, num2" style="html=1;strokeWidth=2;shape=manualInput;whiteSpace=wrap;rounded=1;size=26;arcSize=11;fontStyle=1" vertex="1" parent="1">
          <mxGeometry x="220" y="130" width="160" height="90" as="geometry" />
        </mxCell>
        <mxCell id="YRfRc5hVLMAo7PMf_Jee-6" value="suma = num1 + num2&#xa;diferencia = num1 - num2&#xa;producto = num1 * num2&#xa;cociente = num1 / num2" style="rounded=1;whiteSpace=wrap;html=1;absoluteArcSize=1;arcSize=14;strokeWidth=2;fontStyle=1" vertex="1" parent="1">
          <mxGeometry x="210" y="280" width="165" height="170" as="geometry" />
        </mxCell>
        <mxCell id="YRfRc5hVLMAo7PMf_Jee-7" value="&lt;b&gt;Imprimir suma, diferencia, producto, cociente&lt;/b&gt;" style="strokeWidth=2;html=1;shape=mxgraph.flowchart.display;whiteSpace=wrap;" vertex="1" parent="1">
          <mxGeometry x="200" y="500" width="170" height="120" as="geometry" />
        </mxCell>
        <mxCell id="YRfRc5hVLMAo7PMf_Jee-8" value="Fin" style="strokeWidth=2;html=1;shape=mxgraph.flowchart.terminator;whiteSpace=wrap;fontStyle=1" vertex="1" parent="1">
          <mxGeometry x="227.5" y="680" width="145" height="90" as="geometry" />
        </mxCell>
        <mxCell id="YRfRc5hVLMAo7PMf_Jee-10" value="" style="endArrow=classic;html=1;rounded=0;" edge="1" parent="1">
          <mxGeometry width="50" height="50" relative="1" as="geometry">
            <mxPoint x="297" y="450" as="sourcePoint" />
            <mxPoint x="297.5" y="500" as="targetPoint" />
          </mxGeometry>
        </mxCell>
        <mxCell id="YRfRc5hVLMAo7PMf_Jee-11" value="" style="endArrow=classic;html=1;rounded=0;" edge="1" parent="1">
          <mxGeometry width="50" height="50" relative="1" as="geometry">
            <mxPoint x="300" y="630" as="sourcePoint" />
            <mxPoint x="300.5" y="680" as="targetPoint" />
          </mxGeometry>
        </mxCell>
      </root>
    </mxGraphModel>
  </diagram>
</mxfile>
